<svg xmlns="http://www.w3.org/2000/svg" viewBox="0 0 740 740" fill="none">
  <g transform="translate(0, 41)">
    <path id="LogoMark" d="m679.27,222.9l-164.9-162C474.47,21.7,422.28.5,369.97,0c-52.4.5-104.5,21.7-144.5,60.9L60.67,222.9c-80.9,79.5-80.9,208.4,0,287.9l20.8,20.4c37.1,36.4,230,119.6,247.3,126.6v-314.6c0-9.6-6.7-18.3-15.8-21.9l-102.8-40.2c-8.6,7.2-19.6,11.5-31.7,11.5-27.3,0-49.3-22.1-49.3-49.3s22.1-49.3,49.3-49.3c25.2,0,46,19,48.9,43.3l100.1,39.1c13.7,5.3,28,8.1,42.4,8.3,14.4-.2,28.8-2.9,42.4-8.3l100.2-39.1c3-24.3,23.7-43.3,48.9-43.3,27.3,0,49.3,22.1,49.3,49.3s-22.1,49.3-49.3,49.3c-12.1,0-23.2-4.3-31.7-11.5l-102.9,40.2c-9.2,3.6-15.8,12.2-15.8,21.9v314.6c17.3-7,210.3-90.2,247.3-126.6l20.8-20.5c81.1-79.5,81.1-208.3.2-287.8m-309.3-7.5c-32.9,0-59.6-26.7-59.6-59.6s26.7-59.6,59.6-59.6,59.5,26.7,59.5,59.6-26.7,59.6-59.5,59.6" fill="#7dba28" />
  </g>
</svg>